HIERARCHY
ROOT simHips
{
  OFFSET 0.345829 90.3796 0.265027
  CHANNELS 6 Xposition Yposition Zposition Zrotation Xrotation Yrotation
  JOINT simSpine
  {
    OFFSET -0.000355721 21.3001 -0.016921
    CHANNELS 3 Zrotation Xrotation Yrotation
    JOINT simLeftArm
    {
      OFFSET 13.5181 21.3012 0
      CHANNELS 3 Zrotation Xrotation Yrotation
      JOINT simLeftForeArm
      {
        OFFSET 24.5783 0 0
        CHANNELS 3 Zrotation Xrotation Yrotation
        JOINT simLeftHand
        {
          OFFSET 24.5783 0 0
          CHANNELS 3 Zrotation Xrotation Yrotation
          End Site
          {
            OFFSET 7.32568 1.52588e-05 0.0169305
          }
        }
      }
    }
    JOINT simHead
    {
      OFFSET 0 27.4458 -0.00489235
      CHANNELS 3 Zrotation Xrotation Yrotation
      End Site
      {
        OFFSET 0 0 0
      }
    }
    JOINT simRightArm
    {
      OFFSET -13.5174 21.3012 0
      CHANNELS 3 Zrotation Xrotation Yrotation
      JOINT simRightForeArm
      {
        OFFSET -24.5783 0 0
        CHANNELS 3 Zrotation Xrotation Yrotation
        JOINT simRightHand
        {
          OFFSET -24.5783 0 0
          CHANNELS 3 Zrotation Xrotation Yrotation
          End Site
          {
            OFFSET -7.32568 1.52588e-05 0.0169305
          }
        }
      }
    }
  }
  JOINT simRightUpLeg
  {
    OFFSET -8.44614 -9.41038 0.835684
    CHANNELS 3 Zrotation Xrotation Yrotation
    JOINT simRightLeg
    {
      OFFSET 0 -40.9639 0
      CHANNELS 3 Zrotation Xrotation Yrotation
      JOINT simRightFoot
      {
        OFFSET 0 -40.9639 0
        CHANNELS 3 Zrotation Xrotation Yrotation
        End Site
        {
          OFFSET 0.50614 -9.67405 14.6709
        }
      }
    }
  }
  JOINT simLeftUpLeg
  {
    OFFSET 8.44614 -9.41038 0.835684
    CHANNELS 3 Zrotation Xrotation Yrotation
    JOINT simLeftLeg
    {
      OFFSET 0 -40.9639 0
      CHANNELS 3 Zrotation Xrotation Yrotation
      JOINT simLeftFoot
      {
        OFFSET 0 -40.9639 0
        CHANNELS 3 Zrotation Xrotation Yrotation
        End Site
        {
          OFFSET -0.50614 -9.67405 14.6709
        }
      }
    }
  }
}
MOTION
Frames:	9
Frame Time:	0.0333333
0.345829 90.3796 0.265027 1.63124 7.87736 -35.7093 4.76696 4.43965 3.97807 -54.7885 -17.8254 -32.9961 0.00863412 1.92637e-15 -105.935 4.66128 14.7342 0.20708 -6.26488 4.36479 26.3434 56.3526 22.8697 57.9073 -1.41743e-05 -5.64976e-06 111.732 0.339203 2.32624 10.539 -17.9451 -13.3566 -16.9122 -4.03311 44.2233 -4.39516 23.0335 -13.9453 2.11118 29.3652 -40.1301 25.0136 -3.27562 44.5567 -2.67339 -8.3708 -6.33154 -0.353578 
0.429761 90.7596 0.640084 1.80743 7.31996 -38.8223 4.70196 4.32306 3.79248 -50.4887 -16.0045 -30.2122 0.00863412 4.67614e-15 -98.2825 5.32183 13.9764 0.827023 -6.60227 3.70633 28.7485 51.4481 23.3683 56.6616 -1.42407e-05 -5.48024e-06 111.048 -2.32761 4.08541 11.2571 -18.4661 -13.314 -16.9638 -4.91072 42.6638 -1.0419 22.182 -13.1156 1.80287 29.2342 -37.9933 24.2728 -3.88748 44.0484 0.656409 -9.18144 -6.84776 -0.543863 
0.688437 91.2921 1.42288 2.16353 6.78818 -43.1148 4.47598 4.12332 3.42952 -45.8481 -12.6378 -27.3858 0.00863412 -1.59028e-15 -87.924 6.5093 12.4771 1.61398 -7.31392 3.11361 31.9508 44.7726 24.8922 54.6035 -1.4482e-05 -4.80652e-06 108.361 -7.37486 6.11143 12.4705 -18.7622 -13.3803 -16.6474 -6.6922 39.7975 3.29425 21.7679 -11.5246 1.35973 28.7767 -35.4259 23.3254 -4.53802 43.4973 4.96986 -10.1805 -7.70397 -0.56927 
1.06728 91.9162 2.50608 2.70554 6.17051 -48.3676 4.02173 3.86155 2.92355 -40.98 -7.87193 -24.3048 0.00493107 4.77083e-15 -75.3887 8.52405 10.2752 2.44821 -8.39862 2.54634 35.8653 37.1244 27.7727 51.7517 -1.4811e-05 -3.66946e-06 103.915 -14.4405 8.2705 14.26 -19.1153 -14.6437 -16.264 -8.12424 37.8418 2.55182 20.3593 -8.44512 0.117794 27.7517 -32.5873 22.2406 -4.91299 42.8466 8.8648 -11.2923 -8.89491 0.590966 
1.51471 92.6067 3.80937 3.39844 5.29822 -54.2973 3.34156 3.5706 2.33643 -36.1683 -1.90804 -20.8026 0.0217054 -4.77083e-15 -61.7327 11.3904 7.5554 3.21381 -9.79026 1.94709 40.2512 29.7462 32.0651 48.3918 0.000625777 -2.25097e-06 98.4832 -22.6321 10.3488 16.5757 -20.7483 -19.9264 -16.7186 -7.78622 41.7826 -0.0220417 18.2324 -0.0238216 -2.3293 25.9235 -29.528 21.0399 -4.91337 41.9041 10.96 -12.1878 -10.4883 4.07093 
2.00599 93.3556 5.26843 4.19111 4.0708 -60.6202 2.50157 3.28049 1.72834 -32.0142 5.13188 -16.4535 0.012658 1.59028e-15 -48.2211 14.4371 4.82563 3.66755 -11.3263 1.31876 44.8185 23.6949 37.4686 44.9137 -0.0454406 -8.67394e-07 93.2588 -30.778 12.179 19.2099 -23.6184 -27.5869 -19.0307 -4.76862 50.5604 -1.38269 16.132 7.53373 -4.14898 23.1376 -26.3647 19.5423 -4.61461 40.4314 10.6857 -12.4728 -12.4846 10.554 
2.48212 94.1733 6.83948 4.93469 2.44557 -67.1649 1.59199 3.03747 1.19438 -30.1761 12.7504 -9.20091 -0.000401855 0 -36.973 16.6284 3.09 3.07766 -12.7736 0.821244 49.3871 19.0254 42.8999 41.6685 -0.00154829 1.39489e-07 89.4762 -37.6599 13.7052 21.8031 -25.0911 -34.822 -21.7374 0.830111 60.8416 -4.36975 14.7392 9.90597 -4.16592 19.2561 -23.1123 17.2445 -3.97579 38.1651 9.14067 -12.1696 -14.525 19.3986 
2.86298 95.0852 8.54112 5.30176 0.3515 -73.9283 0.818238 2.93864 0.975029 -33.5693 18.7978 4.19203 0.000272387 -7.95139e-16 -31.0653 17.8227 3.54765 0.295231 -14.0581 0.664977 53.8912 15.3589 46.1428 39.7026 0.00085866 8.29699e-07 86.883 -41.9751 14.9008 23.8109 -22.2594 -38.1473 -21.6376 7.39436 66.7076 -6.86341 13.8495 8.22275 -2.96292 15.2023 -21.0532 14.4131 -3.10933 37.8478 8.40612 -12.5808 -13.946 27.4589 
3.18796 96.1702 10.3753 5.24171 -2.60188 -80.6985 0.291706 3.09356 1.33693 -43.4643 19.1637 23.9301 0.000264988 3.18055e-15 -32.3294 19.6349 6.52029 -5.25313 -15.565 0.6731 58.2863 13.0082 43.9031 39.8079 0.00166472 1.57892e-06 84.0606 -42.7601 15.7001 24.6416 -17.0286 -36.5534 -18.5454 9.04196 65.7727 -4.00183 11.723 4.6546 -1.63671 11.6954 -21.4729 12.1341 -2.45562 41.7484 9.40711 -14.7244 -5.73676 28.6447 
